  0
SECTION
  2
HEADER
  9
$ANGBASE
  50
0.0
  9
$ANGDIR
  70
1
  9
$MEASUREMENT
  70
1
  0
ENDSEC
  0
SECTION
  2
TABLES
  0
TABLE
  2
LTYPE
  70
4
  0
LTYPE
  5
40F
  2
CONTINUOUS
  70
0
  3
Solid line
  72
65
  73
0
  40
0.0
  0
LTYPE
  5
410
  2
DASHDOT
 70
0
  3
Dash Dot ____ _ ____ _
 72
65
 73
4
 40
2.0
 49
1.25
 49
-0.25
 49
0.25
 49
-0.25
  0
LTYPE
  5
411
  2
DASHED
 70
0
  3
Dashed __ __ __ __ __
 72
65
 73
2
 40
0.75
 49
0.5
 49
-0.25
  0
LTYPE
  5
43B
  2
DOTTED
 70
0
  3
Dotted .  .  .  .
 72
65
 73
2
 40
0.2
 49
0.0
 49
-0.2
  0
ENDTAB
  0
TABLE
  2
STYLE
  70
4
  0
STYLE
  2
KICAD
  70
0
  40
0
  41
1
  42
1
  50
0
  71
0
  3
isocp.shx
  0
STYLE
  2
KICADB
  70
0
  40
0
  41
1
  42
1
  50
0
  71
0
  3
isocp.shx
  0
STYLE
  2
KICADI
  70
0
  40
0
  41
1
  42
1
  50
15
  71
0
  3
isocp.shx
  0
STYLE
  2
KICADBI
  70
0
  40
0
  41
1
  42
1
  50
15
  71
0
  3
isocp.shx
  0
ENDTAB
  0
TABLE
  2
LAYER
  70
35
  0
LAYER
  2
BLACK
  70
0
  62
7
  6
CONTINUOUS
  0
LAYER
  2
GRAY1
  70
0
  62
251
  6
CONTINUOUS
  0
LAYER
  2
GRAY2
  70
0
  62
8
  6
CONTINUOUS
  0
LAYER
  2
GRAY3
  70
0
  62
9
  6
CONTINUOUS
  0
LAYER
  2
WHITE
  70
0
  62
7
  6
CONTINUOUS
  0
LAYER
  2
LYELLOW
  70
0
  62
51
  6
CONTINUOUS
  0
LAYER
  2
LORANGE
  70
0
  62
41
  6
CONTINUOUS
  0
LAYER
  2
BLUE1
  70
0
  62
178
  6
CONTINUOUS
  0
LAYER
  2
GREEN1
  70
0
  62
98
  6
CONTINUOUS
  0
LAYER
  2
CYAN1
  70
0
  62
138
  6
CONTINUOUS
  0
LAYER
  2
RED1
  70
0
  62
18
  6
CONTINUOUS
  0
LAYER
  2
MAGENTA1
  70
0
  62
228
  6
CONTINUOUS
  0
LAYER
  2
BROWN1
  70
0
  62
58
  6
CONTINUOUS
  0
LAYER
  2
ORANGE1
  70
0
  62
34
  6
CONTINUOUS
  0
LAYER
  2
BLUE2
  70
0
  62
5
  6
CONTINUOUS
  0
LAYER
  2
GREEN2
  70
0
  62
3
  6
CONTINUOUS
  0
LAYER
  2
CYAN2
  70
0
  62
4
  6
CONTINUOUS
  0
LAYER
  2
RED2
  70
0
  62
1
  6
CONTINUOUS
  0
LAYER
  2
MAGENTA2
  70
0
  62
6
  6
CONTINUOUS
  0
LAYER
  2
BROWN2
  70
0
  62
54
  6
CONTINUOUS
  0
LAYER
  2
ORANGE2
  70
0
  62
42
  6
CONTINUOUS
  0
LAYER
  2
BLUE3
  70
0
  62
171
  6
CONTINUOUS
  0
LAYER
  2
GREEN3
  70
0
  62
91
  6
CONTINUOUS
  0
LAYER
  2
CYAN3
  70
0
  62
131
  6
CONTINUOUS
  0
LAYER
  2
RED3
  70
0
  62
11
  6
CONTINUOUS
  0
LAYER
  2
MAGENTA3
  70
0
  62
221
  6
CONTINUOUS
  0
LAYER
  2
YELLOW3
  70
0
  62
2
  6
CONTINUOUS
  0
LAYER
  2
ORANGE3
  70
0
  62
32
  6
CONTINUOUS
  0
LAYER
  2
BLUE4
  70
0
  62
5
  6
CONTINUOUS
  0
LAYER
  2
GREEN4
  70
0
  62
3
  6
CONTINUOUS
  0
LAYER
  2
CYAN4
  70
0
  62
4
  6
CONTINUOUS
  0
LAYER
  2
RED4
  70
0
  62
1
  6
CONTINUOUS
  0
LAYER
  2
MAGENTA4
  70
0
  62
6
  6
CONTINUOUS
  0
LAYER
  2
YELLOW4
  70
0
  62
2
  6
CONTINUOUS
  0
LAYER
  2
ORANGE4
  70
0
  62
40
  6
CONTINUOUS
  0
ENDTAB
  0
ENDSEC
  0
SECTION
  2
ENTITIES
0
ARC
8
WHITE
10
83.8999999999999915
20
-77.5439999999999969
40
0.5
50
0.00000000
51
90.00000000
0
LINE
8
WHITE
6
CONTINUOUS
10
70.3999999999999915
20
-77.0439999999999969
11
83.8999999999999915
21
-77.0439999999999969
0
ARC
8
WHITE
10
102.9499999999999886
20
-115.6439999999999912
40
0.5
50
0.00000000
51
90.00000000
0
ARC
8
WHITE
10
30.9499999999999993
20
-149.5439999999999827
40
1.
50
-180.00000000
51
-90.00000000
0
ARC
8
WHITE
10
89.4500000000000028
20
-77.5439999999999969
40
0.5
50
90.00000000
51
180.00000000
0
LINE
8
WHITE
6
CONTINUOUS
10
103.4499999999999886
20
-134.6939999999999884
11
103.4499999999999886
21
-148.1939999999999884
0
LINE
8
WHITE
6
CONTINUOUS
10
127.0499999999999972
20
-148.1939999999999884
11
127.0499999999999972
21
-134.6939999999999884
0
ARC
8
WHITE
10
32.2999999999999972
20
-115.6439999999999912
40
0.5
50
90.00000000
51
180.00000000
0
LINE
8
WHITE
6
CONTINUOUS
10
122.5
20
-115.6439999999999912
11
122.5
21
-129.1440000000000055
0
LINE
8
WHITE
6
CONTINUOUS
10
108.5
20
-96.0939999999999941
11
122.
21
-96.0939999999999941
0
LINE
8
WHITE
6
CONTINUOUS
10
69.8999999999999915
20
-91.0439999999999969
11
69.8999999999999915
21
-77.5439999999999969
0
ARC
8
WHITE
10
122.
20
-148.1939999999999884
40
0.5
50
-90.00000000
51
-0.00000000
0
ARC
8
WHITE
10
51.3499999999999943
20
-115.6439999999999912
40
0.5
50
90.00000000
51
180.00000000
0
ARC
8
WHITE
10
70.3999999999999915
20
-77.5439999999999969
40
0.5
50
90.00000000
51
180.00000000
0
LINE
8
WHITE
6
CONTINUOUS
10
64.8499999999999943
20
-91.5439999999999969
11
51.3499999999999943
21
-91.5439999999999969
0
LINE
8
WHITE
6
CONTINUOUS
10
141.5499999999999829
20
-96.5939999999999941
11
141.5499999999999829
21
-110.0939999999999941
0
ARC
8
WHITE
10
45.7999999999999972
20
-129.1440000000000055
40
0.5
50
-90.00000000
51
-0.00000000
0
ARC
8
WHITE
10
127.5499999999999972
20
-134.6939999999999884
40
0.5
50
90.00000000
51
180.00000000
0
ARC
8
WHITE
10
51.3499999999999943
20
-134.6939999999999884
40
0.5
50
90.00000000
51
180.00000000
0
LINE
8
WHITE
6
CONTINUOUS
10
103.4499999999999886
20
-115.6439999999999912
11
103.4499999999999886
21
-129.1440000000000055
0
LINE
8
WHITE
6
CONTINUOUS
10
108.5
20
-77.0439999999999969
11
122.
21
-77.0439999999999969
0
ARC
8
WHITE
10
122.
20
-77.5439999999999969
40
0.5
50
0.00000000
51
90.00000000
0
ARC
8
WHITE
10
70.3999999999999915
20
-129.1440000000000055
40
0.5
50
-180.00000000
51
-90.00000000
0
LINE
8
WHITE
6
CONTINUOUS
10
45.7999999999999972
20
-91.5439999999999969
11
32.2999999999999972
21
-91.5439999999999969
0
LINE
8
WHITE
6
CONTINUOUS
10
69.8999999999999915
20
-129.1440000000000055
11
69.8999999999999915
21
-115.6439999999999912
0
ARC
8
WHITE
10
141.0499999999999829
20
-77.5439999999999969
40
0.5
50
0.00000000
51
90.00000000
0
LINE
8
WHITE
6
CONTINUOUS
10
64.8499999999999943
20
-148.6939999999999884
11
51.3499999999999943
21
-148.6939999999999884
0
LINE
8
WHITE
6
CONTINUOUS
10
50.8499999999999943
20
-110.0939999999999941
11
50.8499999999999943
21
-96.5939999999999941
0
ARC
8
WHITE
10
51.3499999999999943
20
-77.5439999999999969
40
0.5
50
90.00000000
51
180.00000000
0
ARC
8
WHITE
10
89.4500000000000028
20
-91.0439999999999969
40
0.5
50
-180.00000000
51
-90.00000000
0
ARC
8
WHITE
10
127.5499999999999972
20
-77.5439999999999969
40
0.5
50
90.00000000
51
180.00000000
0
LINE
8
WHITE
6
CONTINUOUS
10
102.9499999999999886
20
-129.6440000000000055
11
89.4500000000000028
21
-129.6440000000000055
0
LINE
8
WHITE
6
CONTINUOUS
10
70.3999999999999915
20
-96.0939999999999941
11
83.8999999999999915
21
-96.0939999999999941
0
LINE
8
WHITE
6
CONTINUOUS
10
51.3499999999999943
20
-134.1939999999999884
11
64.8499999999999943
21
-134.1939999999999884
0
LINE
8
WHITE
6
CONTINUOUS
10
83.8999999999999915
20
-91.5439999999999969
11
70.3999999999999915
21
-91.5439999999999969
0
LINE
8
WHITE
6
CONTINUOUS
10
143.4000000000000057
20
-76.1940000000000026
11
143.4000000000000057
21
-149.5439999999999827
0
LINE
8
WHITE
6
CONTINUOUS
10
50.8499999999999943
20
-148.1939999999999884
11
50.8499999999999943
21
-134.6939999999999884
0
ARC
8
WHITE
10
122.
20
-129.1440000000000055
40
0.5
50
-90.00000000
51
-0.00000000
0
ARC
8
WHITE
10
141.0499999999999829
20
-110.0939999999999941
40
0.5
50
-90.00000000
51
-0.00000000
0
LINE
8
WHITE
6
CONTINUOUS
10
122.
20
-129.6440000000000055
11
108.5
21
-129.6440000000000055
0
ARC
8
WHITE
10
45.7999999999999972
20
-110.0939999999999941
40
0.5
50
-90.00000000
51
-0.00000000
0
LINE
8
WHITE
6
CONTINUOUS
10
141.0499999999999829
20
-110.5939999999999941
11
127.5499999999999972
21
-110.5939999999999941
0
ARC
8
WHITE
10
102.9499999999999886
20
-77.5439999999999969
40
0.5
50
0.00000000
51
90.00000000
0
ARC
8
WHITE
10
122.
20
-110.0939999999999941
40
0.5
50
-90.00000000
51
-0.00000000
0
LINE
8
WHITE
6
CONTINUOUS
10
89.4500000000000028
20
-115.1439999999999912
11
102.9499999999999886
21
-115.1439999999999912
0
LINE
8
WHITE
6
CONTINUOUS
10
31.7999999999999972
20
-148.1939999999999884
11
31.7999999999999972
21
-134.6939999999999884
0
ARC
8
WHITE
10
83.8999999999999915
20
-148.1939999999999884
40
0.5
50
-90.00000000
51
-0.00000000
0
LINE
8
WHITE
6
CONTINUOUS
10
30.9499999999999993
20
-75.1940000000000026
11
142.4000000000000057
21
-75.1940000000000026
0
LINE
8
WHITE
6
CONTINUOUS
10
70.3999999999999915
20
-115.1439999999999912
11
83.8999999999999915
21
-115.1439999999999912
0
LINE
8
WHITE
6
CONTINUOUS
10
45.7999999999999972
20
-129.6440000000000055
11
32.2999999999999972
21
-129.6440000000000055
0
LINE
8
WHITE
6
CONTINUOUS
10
108.
20
-129.1440000000000055
11
108.
21
-115.6439999999999912
0
ARC
8
WHITE
10
142.4000000000000057
20
-149.5439999999999827
40
1.
50
-90.00000000
51
-0.00000000
0
ARC
8
WHITE
10
51.3499999999999943
20
-110.0939999999999941
40
0.5
50
-180.00000000
51
-90.00000000
0
ARC
8
WHITE
10
83.8999999999999915
20
-110.0939999999999941
40
0.5
50
-90.00000000
51
-0.00000000
0
LINE
8
WHITE
6
CONTINUOUS
10
122.
20
-148.6939999999999884
11
108.5
21
-148.6939999999999884
0
ARC
8
WHITE
10
122.
20
-91.0439999999999969
40
0.5
50
-90.00000000
51
-0.00000000
0
CIRCLE
8
WHITE
10
48.5749999999999957
20
-93.8190000000000026
40
2.1999999999999997
0
ARC
8
WHITE
10
89.4500000000000028
20
-115.6439999999999912
40
0.5
50
90.00000000
51
180.00000000
0
LINE
8
WHITE
6
CONTINUOUS
10
46.2999999999999972
20
-134.6939999999999884
11
46.2999999999999972
21
-148.1939999999999884
0
LINE
8
WHITE
6
CONTINUOUS
10
84.3999999999999915
20
-115.6439999999999912
11
84.3999999999999915
21
-129.1440000000000055
0
LINE
8
WHITE
6
CONTINUOUS
10
65.3499999999999943
20
-134.6939999999999884
11
65.3499999999999943
21
-148.1939999999999884
0
LINE
8
WHITE
6
CONTINUOUS
10
127.5499999999999972
20
-96.0939999999999941
11
141.0499999999999829
21
-96.0939999999999941
0
LINE
8
WHITE
6
CONTINUOUS
10
88.9500000000000028
20
-110.0939999999999941
11
88.9500000000000028
21
-96.5939999999999941
0
LINE
8
WHITE
6
CONTINUOUS
10
102.9499999999999886
20
-110.5939999999999941
11
89.4500000000000028
21
-110.5939999999999941
0
LINE
8
WHITE
6
CONTINUOUS
10
50.8499999999999943
20
-91.0439999999999969
11
50.8499999999999943
21
-77.5439999999999969
0
ARC
8
WHITE
10
89.4500000000000028
20
-148.1939999999999884
40
0.5
50
-180.00000000
51
-90.00000000
0
ARC
8
WHITE
10
108.5
20
-91.0439999999999969
40
0.5
50
-180.00000000
51
-90.00000000
0
ARC
8
WHITE
10
141.0499999999999829
20
-96.5939999999999941
40
0.5
50
0.00000000
51
90.00000000
0
LINE
8
WHITE
6
CONTINUOUS
10
141.0499999999999829
20
-148.6939999999999884
11
127.5499999999999972
21
-148.6939999999999884
0
LINE
8
WHITE
6
CONTINUOUS
10
83.8999999999999915
20
-110.5939999999999941
11
70.3999999999999915
21
-110.5939999999999941
0
LINE
8
WHITE
6
CONTINUOUS
10
65.3499999999999943
20
-96.5939999999999941
11
65.3499999999999943
21
-110.0939999999999941
0
LINE
8
WHITE
6
CONTINUOUS
10
108.
20
-91.0439999999999969
11
108.
21
-77.5439999999999969
0
CIRCLE
8
WHITE
10
124.7749999999999915
20
-93.8190000000000026
40
2.1999999999999997
0
LINE
8
WHITE
6
CONTINUOUS
10
89.4500000000000028
20
-77.0439999999999969
11
102.9499999999999886
21
-77.0439999999999969
0
LINE
8
WHITE
6
CONTINUOUS
10
141.5499999999999829
20
-134.6939999999999884
11
141.5499999999999829
21
-148.1939999999999884
0
ARC
8
WHITE
10
102.9499999999999886
20
-129.1440000000000055
40
0.5
50
-90.00000000
51
-0.00000000
0
LINE
8
WHITE
6
CONTINUOUS
10
84.3999999999999915
20
-77.5439999999999969
11
84.3999999999999915
21
-91.0439999999999969
0
LINE
8
WHITE
6
CONTINUOUS
10
103.4499999999999886
20
-77.5439999999999969
11
103.4499999999999886
21
-91.0439999999999969
0
ARC
8
WHITE
10
83.8999999999999915
20
-91.0439999999999969
40
0.5
50
-90.00000000
51
-0.00000000
0
LINE
8
WHITE
6
CONTINUOUS
10
32.2999999999999972
20
-115.1439999999999912
11
45.7999999999999972
21
-115.1439999999999912
0
LINE
8
WHITE
6
CONTINUOUS
10
64.8499999999999943
20
-129.6440000000000055
11
51.3499999999999943
21
-129.6440000000000055
0
CIRCLE
8
WHITE
10
124.7749999999999915
20
-131.9189999999999827
40
2.1999999999999997
0
ARC
8
WHITE
10
32.2999999999999972
20
-110.0939999999999941
40
0.5
50
-180.00000000
51
-90.00000000
0
LINE
8
WHITE
6
CONTINUOUS
10
141.0499999999999829
20
-91.5439999999999969
11
127.5499999999999972
21
-91.5439999999999969
0
LINE
8
WHITE
6
CONTINUOUS
10
70.3999999999999915
20
-134.1939999999999884
11
83.8999999999999915
21
-134.1939999999999884
0
ARC
8
WHITE
10
141.0499999999999829
20
-91.0439999999999969
40
0.5
50
-90.00000000
51
-0.00000000
0
ARC
8
WHITE
10
102.9499999999999886
20
-91.0439999999999969
40
0.5
50
-90.00000000
51
-0.00000000
0
LINE
8
WHITE
6
CONTINUOUS
10
32.2999999999999972
20
-134.1939999999999884
11
45.7999999999999972
21
-134.1939999999999884
0
ARC
8
WHITE
10
64.8499999999999943
20
-148.1939999999999884
40
0.5
50
-90.00000000
51
-0.00000000
0
ARC
8
WHITE
10
64.8499999999999943
20
-77.5439999999999969
40
0.5
50
0.00000000
51
90.00000000
0
ARC
8
WHITE
10
108.5
20
-96.5939999999999941
40
0.5
50
90.00000000
51
180.00000000
0
ARC
8
WHITE
10
122.
20
-96.5939999999999941
40
0.5
50
0.00000000
51
90.00000000
0
ARC
8
WHITE
10
70.3999999999999915
20
-110.0939999999999941
40
0.5
50
-180.00000000
51
-90.00000000
0
ARC
8
WHITE
10
122.
20
-134.6939999999999884
40
0.5
50
0.00000000
51
90.00000000
0
ARC
8
WHITE
10
108.5
20
-115.6439999999999912
40
0.5
50
90.00000000
51
180.00000000
0
LINE
8
WHITE
6
CONTINUOUS
10
69.8999999999999915
20
-110.0939999999999941
11
69.8999999999999915
21
-96.5939999999999941
0
LINE
8
WHITE
6
CONTINUOUS
10
31.7999999999999972
20
-91.0439999999999969
11
31.7999999999999972
21
-77.5439999999999969
0
LINE
8
WHITE
6
CONTINUOUS
10
141.0499999999999829
20
-129.6440000000000055
11
127.5499999999999972
21
-129.6440000000000055
0
ARC
8
WHITE
10
141.0499999999999829
20
-134.6939999999999884
40
0.5
50
0.00000000
51
90.00000000
0
ARC
8
WHITE
10
51.3499999999999943
20
-91.0439999999999969
40
0.5
50
-180.00000000
51
-90.00000000
0
ARC
8
WHITE
10
83.8999999999999915
20
-129.1440000000000055
40
0.5
50
-90.00000000
51
-0.00000000
0
ARC
8
WHITE
10
70.3999999999999915
20
-148.1939999999999884
40
0.5
50
-180.00000000
51
-90.00000000
0
LINE
8
WHITE
6
CONTINUOUS
10
69.8999999999999915
20
-148.1939999999999884
11
69.8999999999999915
21
-134.6939999999999884
0
LINE
8
WHITE
6
CONTINUOUS
10
65.3499999999999943
20
-115.6439999999999912
11
65.3499999999999943
21
-129.1440000000000055
0
ARC
8
WHITE
10
108.5
20
-77.5439999999999969
40
0.5
50
90.00000000
51
180.00000000
0
LINE
8
WHITE
6
CONTINUOUS
10
127.5499999999999972
20
-134.1939999999999884
11
141.0499999999999829
21
-134.1939999999999884
0
LINE
8
WHITE
6
CONTINUOUS
10
46.2999999999999972
20
-77.5439999999999969
11
46.2999999999999972
21
-91.0439999999999969
0
ARC
8
WHITE
10
108.5
20
-148.1939999999999884
40
0.5
50
-180.00000000
51
-90.00000000
0
LINE
8
WHITE
6
CONTINUOUS
10
122.
20
-91.5439999999999969
11
108.5
21
-91.5439999999999969
0
ARC
8
WHITE
10
141.0499999999999829
20
-115.6439999999999912
40
0.5
50
0.00000000
51
90.00000000
0
ARC
8
WHITE
10
142.4000000000000057
20
-76.1940000000000026
40
1.
50
0.00000000
51
90.00000000
0
LINE
8
WHITE
6
CONTINUOUS
10
89.4500000000000028
20
-96.0939999999999941
11
102.9499999999999886
21
-96.0939999999999941
0
ARC
8
WHITE
10
64.8499999999999943
20
-110.0939999999999941
40
0.5
50
-90.00000000
51
-0.00000000
0
ARC
8
WHITE
10
127.5499999999999972
20
-96.5939999999999941
40
0.5
50
90.00000000
51
180.00000000
0
ARC
8
WHITE
10
45.7999999999999972
20
-96.5939999999999941
40
0.5
50
0.00000000
51
90.00000000
0
ARC
8
WHITE
10
102.9499999999999886
20
-96.5939999999999941
40
0.5
50
0.00000000
51
90.00000000
0
ARC
8
WHITE
10
102.9499999999999886
20
-110.0939999999999941
40
0.5
50
-90.00000000
51
-0.00000000
0
LINE
8
WHITE
6
CONTINUOUS
10
122.5
20
-96.5939999999999941
11
122.5
21
-110.0939999999999941
0
LINE
8
WHITE
6
CONTINUOUS
10
122.
20
-110.5939999999999941
11
108.5
21
-110.5939999999999941
0
ARC
8
WHITE
10
83.8999999999999915
20
-134.6939999999999884
40
0.5
50
0.00000000
51
90.00000000
0
LINE
8
WHITE
6
CONTINUOUS
10
46.2999999999999972
20
-96.5939999999999941
11
46.2999999999999972
21
-110.0939999999999941
0
ARC
8
WHITE
10
141.0499999999999829
20
-148.1939999999999884
40
0.5
50
-90.00000000
51
-0.00000000
0
LINE
8
WHITE
6
CONTINUOUS
10
141.5499999999999829
20
-115.6439999999999912
11
141.5499999999999829
21
-129.1440000000000055
0
LINE
8
WHITE
6
CONTINUOUS
10
122.5
20
-77.5439999999999969
11
122.5
21
-91.0439999999999969
0
LINE
8
WHITE
6
CONTINUOUS
10
83.8999999999999915
20
-148.6939999999999884
11
70.3999999999999915
21
-148.6939999999999884
0
LINE
8
WHITE
6
CONTINUOUS
10
127.5499999999999972
20
-115.1439999999999912
11
141.0499999999999829
21
-115.1439999999999912
0
ARC
8
WHITE
10
30.9499999999999993
20
-76.1940000000000026
40
1.
50
90.00000000
51
180.00000000
0
LINE
8
WHITE
6
CONTINUOUS
10
32.2999999999999972
20
-96.0939999999999941
11
45.7999999999999972
21
-96.0939999999999941
0
LINE
8
WHITE
6
CONTINUOUS
10
108.5
20
-115.1439999999999912
11
122.
21
-115.1439999999999912
0
ARC
8
WHITE
10
51.3499999999999943
20
-148.1939999999999884
40
0.5
50
-180.00000000
51
-90.00000000
0
LINE
8
WHITE
6
CONTINUOUS
10
88.9500000000000028
20
-91.0439999999999969
11
88.9500000000000028
21
-77.5439999999999969
0
ARC
8
WHITE
10
127.5499999999999972
20
-110.0939999999999941
40
0.5
50
-180.00000000
51
-90.00000000
0
ARC
8
WHITE
10
32.2999999999999972
20
-148.1939999999999884
40
0.5
50
-180.00000000
51
-90.00000000
0
ARC
8
WHITE
10
45.7999999999999972
20
-134.6939999999999884
40
0.5
50
0.00000000
51
90.00000000
0
ARC
8
WHITE
10
122.
20
-115.6439999999999912
40
0.5
50
0.00000000
51
90.00000000
0
ARC
8
WHITE
10
127.5499999999999972
20
-129.1440000000000055
40
0.5
50
-180.00000000
51
-90.00000000
0
ARC
8
WHITE
10
51.3499999999999943
20
-96.5939999999999941
40
0.5
50
90.00000000
51
180.00000000
0
LINE
8
WHITE
6
CONTINUOUS
10
102.9499999999999886
20
-91.5439999999999969
11
89.4500000000000028
21
-91.5439999999999969
0
ARC
8
WHITE
10
70.3999999999999915
20
-91.0439999999999969
40
0.5
50
-180.00000000
51
-90.00000000
0
ARC
8
WHITE
10
51.3499999999999943
20
-129.1440000000000055
40
0.5
50
-180.00000000
51
-90.00000000
0
ARC
8
WHITE
10
32.2999999999999972
20
-129.1440000000000055
40
0.5
50
-180.00000000
51
-90.00000000
0
LINE
8
WHITE
6
CONTINUOUS
10
127.0499999999999972
20
-91.0439999999999969
11
127.0499999999999972
21
-77.5439999999999969
0
ARC
8
WHITE
10
141.0499999999999829
20
-129.1440000000000055
40
0.5
50
-90.00000000
51
-0.00000000
0
ARC
8
WHITE
10
127.5499999999999972
20
-91.0439999999999969
40
0.5
50
-180.00000000
51
-90.00000000
0
ARC
8
WHITE
10
89.4500000000000028
20
-134.6939999999999884
40
0.5
50
90.00000000
51
180.00000000
0
LINE
8
WHITE
6
CONTINUOUS
10
127.5499999999999972
20
-77.0439999999999969
11
141.0499999999999829
21
-77.0439999999999969
0
LINE
8
WHITE
6
CONTINUOUS
10
122.5
20
-134.6939999999999884
11
122.5
21
-148.1939999999999884
0
LINE
8
WHITE
6
CONTINUOUS
10
127.0499999999999972
20
-129.1440000000000055
11
127.0499999999999972
21
-115.6439999999999912
0
LINE
8
WHITE
6
CONTINUOUS
10
88.9500000000000028
20
-129.1440000000000055
11
88.9500000000000028
21
-115.6439999999999912
0
ARC
8
WHITE
10
108.5
20
-110.0939999999999941
40
0.5
50
-180.00000000
51
-90.00000000
0
LINE
8
WHITE
6
CONTINUOUS
10
108.
20
-110.0939999999999941
11
108.
21
-96.5939999999999941
0
LINE
8
WHITE
6
CONTINUOUS
10
51.3499999999999943
20
-115.1439999999999912
11
64.8499999999999943
21
-115.1439999999999912
0
LINE
8
WHITE
6
CONTINUOUS
10
89.4500000000000028
20
-134.1939999999999884
11
102.9499999999999886
21
-134.1939999999999884
0
ARC
8
WHITE
10
32.2999999999999972
20
-96.5939999999999941
40
0.5
50
90.00000000
51
180.00000000
0
ARC
8
WHITE
10
70.3999999999999915
20
-115.6439999999999912
40
0.5
50
90.00000000
51
180.00000000
0
LINE
8
WHITE
6
CONTINUOUS
10
88.9500000000000028
20
-148.1939999999999884
11
88.9500000000000028
21
-134.6939999999999884
0
ARC
8
WHITE
10
108.5
20
-134.6939999999999884
40
0.5
50
90.00000000
51
180.00000000
0
ARC
8
WHITE
10
45.7999999999999972
20
-148.1939999999999884
40
0.5
50
-90.00000000
51
-0.00000000
0
LINE
8
WHITE
6
CONTINUOUS
10
65.3499999999999943
20
-77.5439999999999969
11
65.3499999999999943
21
-91.0439999999999969
0
ARC
8
WHITE
10
102.9499999999999886
20
-148.1939999999999884
40
0.5
50
-90.00000000
51
-0.00000000
0
LINE
8
WHITE
6
CONTINUOUS
10
142.4000000000000057
20
-150.5439999999999827
11
30.9499999999999993
21
-150.5439999999999827
0
LINE
8
WHITE
6
CONTINUOUS
10
51.3499999999999943
20
-96.0939999999999941
11
64.8499999999999943
21
-96.0939999999999941
0
LINE
8
WHITE
6
CONTINUOUS
10
108.
20
-148.1939999999999884
11
108.
21
-134.6939999999999884
0
ARC
8
WHITE
10
64.8499999999999943
20
-91.0439999999999969
40
0.5
50
-90.00000000
51
-0.00000000
0
ARC
8
WHITE
10
64.8499999999999943
20
-96.5939999999999941
40
0.5
50
0.00000000
51
90.00000000
0
ARC
8
WHITE
10
127.5499999999999972
20
-148.1939999999999884
40
0.5
50
-180.00000000
51
-90.00000000
0
ARC
8
WHITE
10
83.8999999999999915
20
-96.5939999999999941
40
0.5
50
0.00000000
51
90.00000000
0
LINE
8
WHITE
6
CONTINUOUS
10
103.4499999999999886
20
-96.5939999999999941
11
103.4499999999999886
21
-110.0939999999999941
0
ARC
8
WHITE
10
64.8499999999999943
20
-134.6939999999999884
40
0.5
50
0.00000000
51
90.00000000
0
LINE
8
WHITE
6
CONTINUOUS
10
141.5499999999999829
20
-77.5439999999999969
11
141.5499999999999829
21
-91.0439999999999969
0
LINE
8
WHITE
6
CONTINUOUS
10
127.0499999999999972
20
-110.0939999999999941
11
127.0499999999999972
21
-96.5939999999999941
0
ARC
8
WHITE
10
70.3999999999999915
20
-134.6939999999999884
40
0.5
50
90.00000000
51
180.00000000
0
ARC
8
WHITE
10
45.7999999999999972
20
-115.6439999999999912
40
0.5
50
0.00000000
51
90.00000000
0
LINE
8
WHITE
6
CONTINUOUS
10
32.2999999999999972
20
-77.0439999999999969
11
45.7999999999999972
21
-77.0439999999999969
0
ARC
8
WHITE
10
127.5499999999999972
20
-115.6439999999999912
40
0.5
50
90.00000000
51
180.00000000
0
LINE
8
WHITE
6
CONTINUOUS
10
29.9499999999999993
20
-149.5439999999999827
11
29.9499999999999993
21
-76.1940000000000026
0
LINE
8
WHITE
6
CONTINUOUS
10
46.2999999999999972
20
-115.6439999999999912
11
46.2999999999999972
21
-129.1440000000000055
0
ARC
8
WHITE
10
64.8499999999999943
20
-129.1440000000000055
40
0.5
50
-90.00000000
51
-0.00000000
0
ARC
8
WHITE
10
108.5
20
-129.1440000000000055
40
0.5
50
-180.00000000
51
-90.00000000
0
LINE
8
WHITE
6
CONTINUOUS
10
31.7999999999999972
20
-110.0939999999999941
11
31.7999999999999972
21
-96.5939999999999941
0
LINE
8
WHITE
6
CONTINUOUS
10
84.3999999999999915
20
-134.6939999999999884
11
84.3999999999999915
21
-148.1939999999999884
0
LINE
8
WHITE
6
CONTINUOUS
10
51.3499999999999943
20
-77.0439999999999969
11
64.8499999999999943
21
-77.0439999999999969
0
LINE
8
WHITE
6
CONTINUOUS
10
102.9499999999999886
20
-148.6939999999999884
11
89.4500000000000028
21
-148.6939999999999884
0
LINE
8
WHITE
6
CONTINUOUS
10
108.5
20
-134.1939999999999884
11
122.
21
-134.1939999999999884
0
LINE
8
WHITE
6
CONTINUOUS
10
31.7999999999999972
20
-129.1440000000000055
11
31.7999999999999972
21
-115.6439999999999912
0
ARC
8
WHITE
10
64.8499999999999943
20
-115.6439999999999912
40
0.5
50
0.00000000
51
90.00000000
0
LINE
8
WHITE
6
CONTINUOUS
10
45.7999999999999972
20
-110.5939999999999941
11
32.2999999999999972
21
-110.5939999999999941
0
LINE
8
WHITE
6
CONTINUOUS
10
45.7999999999999972
20
-148.6939999999999884
11
32.2999999999999972
21
-148.6939999999999884
0
ARC
8
WHITE
10
32.2999999999999972
20
-134.6939999999999884
40
0.5
50
90.00000000
51
180.00000000
0
ARC
8
WHITE
10
32.2999999999999972
20
-91.0439999999999969
40
0.5
50
-180.00000000
51
-90.00000000
0
ARC
8
WHITE
10
89.4500000000000028
20
-129.1440000000000055
40
0.5
50
-180.00000000
51
-90.00000000
0
LINE
8
WHITE
6
CONTINUOUS
10
84.3999999999999915
20
-96.5939999999999941
11
84.3999999999999915
21
-110.0939999999999941
0
ARC
8
WHITE
10
32.2999999999999972
20
-77.5439999999999969
40
0.5
50
90.00000000
51
180.00000000
0
ARC
8
WHITE
10
45.7999999999999972
20
-91.0439999999999969
40
0.5
50
-90.00000000
51
-0.00000000
0
ARC
8
WHITE
10
89.4500000000000028
20
-96.5939999999999941
40
0.5
50
90.00000000
51
180.00000000
0
ARC
8
WHITE
10
83.8999999999999915
20
-115.6439999999999912
40
0.5
50
0.00000000
51
90.00000000
0
ARC
8
WHITE
10
45.7999999999999972
20
-77.5439999999999969
40
0.5
50
0.00000000
51
90.00000000
0
ARC
8
WHITE
10
70.3999999999999915
20
-96.5939999999999941
40
0.5
50
90.00000000
51
180.00000000
0
LINE
8
WHITE
6
CONTINUOUS
10
83.8999999999999915
20
-129.6440000000000055
11
70.3999999999999915
21
-129.6440000000000055
0
LINE
8
WHITE
6
CONTINUOUS
10
50.8499999999999943
20
-129.1440000000000055
11
50.8499999999999943
21
-115.6439999999999912
0
ARC
8
WHITE
10
102.9499999999999886
20
-134.6939999999999884
40
0.5
50
0.00000000
51
90.00000000
0
LINE
8
WHITE
6
CONTINUOUS
10
64.8499999999999943
20
-110.5939999999999941
11
51.3499999999999943
21
-110.5939999999999941
0
ARC
8
WHITE
10
89.4500000000000028
20
-110.0939999999999941
40
0.5
50
-180.00000000
51
-90.00000000
0
CIRCLE
8
WHITE
10
48.5749999999999957
20
-131.9189999999999827
40
2.1999999999999997
  0
ENDSEC
  0
EOF
