  0
SECTION
  2
HEADER
  9
$ANGBASE
  50
0.0
  9
$ANGDIR
  70
1
  9
$MEASUREMENT
  70
1
  0
ENDSEC
  0
SECTION
  2
TABLES
  0
TABLE
  2
LTYPE
  70
4
  0
LTYPE
  5
40F
  2
CONTINUOUS
  70
0
  3
Solid line
  72
65
  73
0
  40
0.0
  0
LTYPE
  5
410
  2
DASHDOT
 70
0
  3
Dash Dot ____ _ ____ _
 72
65
 73
4
 40
2.0
 49
1.25
 49
-0.25
 49
0.25
 49
-0.25
  0
LTYPE
  5
411
  2
DASHED
 70
0
  3
Dashed __ __ __ __ __
 72
65
 73
2
 40
0.75
 49
0.5
 49
-0.25
  0
LTYPE
  5
43B
  2
DOTTED
 70
0
  3
Dotted .  .  .  .
 72
65
 73
2
 40
0.2
 49
0.0
 49
-0.2
  0
ENDTAB
  0
TABLE
  2
STYLE
  70
4
  0
STYLE
  2
KICAD
  70
0
  40
0
  41
1
  42
1
  50
0
  71
0
  3
isocp.shx
  0
STYLE
  2
KICADB
  70
0
  40
0
  41
1
  42
1
  50
0
  71
0
  3
isocp.shx
  0
STYLE
  2
KICADI
  70
0
  40
0
  41
1
  42
1
  50
15
  71
0
  3
isocp.shx
  0
STYLE
  2
KICADBI
  70
0
  40
0
  41
1
  42
1
  50
15
  71
0
  3
isocp.shx
  0
ENDTAB
  0
TABLE
  2
LAYER
  70
35
  0
LAYER
  2
BLACK
  70
0
  62
7
  6
CONTINUOUS
  0
LAYER
  2
GRAY1
  70
0
  62
251
  6
CONTINUOUS
  0
LAYER
  2
GRAY2
  70
0
  62
8
  6
CONTINUOUS
  0
LAYER
  2
GRAY3
  70
0
  62
9
  6
CONTINUOUS
  0
LAYER
  2
WHITE
  70
0
  62
7
  6
CONTINUOUS
  0
LAYER
  2
LYELLOW
  70
0
  62
51
  6
CONTINUOUS
  0
LAYER
  2
LORANGE
  70
0
  62
41
  6
CONTINUOUS
  0
LAYER
  2
BLUE1
  70
0
  62
178
  6
CONTINUOUS
  0
LAYER
  2
GREEN1
  70
0
  62
98
  6
CONTINUOUS
  0
LAYER
  2
CYAN1
  70
0
  62
138
  6
CONTINUOUS
  0
LAYER
  2
RED1
  70
0
  62
18
  6
CONTINUOUS
  0
LAYER
  2
MAGENTA1
  70
0
  62
228
  6
CONTINUOUS
  0
LAYER
  2
BROWN1
  70
0
  62
58
  6
CONTINUOUS
  0
LAYER
  2
ORANGE1
  70
0
  62
34
  6
CONTINUOUS
  0
LAYER
  2
BLUE2
  70
0
  62
5
  6
CONTINUOUS
  0
LAYER
  2
GREEN2
  70
0
  62
3
  6
CONTINUOUS
  0
LAYER
  2
CYAN2
  70
0
  62
4
  6
CONTINUOUS
  0
LAYER
  2
RED2
  70
0
  62
1
  6
CONTINUOUS
  0
LAYER
  2
MAGENTA2
  70
0
  62
6
  6
CONTINUOUS
  0
LAYER
  2
BROWN2
  70
0
  62
54
  6
CONTINUOUS
  0
LAYER
  2
ORANGE2
  70
0
  62
42
  6
CONTINUOUS
  0
LAYER
  2
BLUE3
  70
0
  62
171
  6
CONTINUOUS
  0
LAYER
  2
GREEN3
  70
0
  62
91
  6
CONTINUOUS
  0
LAYER
  2
CYAN3
  70
0
  62
131
  6
CONTINUOUS
  0
LAYER
  2
RED3
  70
0
  62
11
  6
CONTINUOUS
  0
LAYER
  2
MAGENTA3
  70
0
  62
221
  6
CONTINUOUS
  0
LAYER
  2
YELLOW3
  70
0
  62
2
  6
CONTINUOUS
  0
LAYER
  2
ORANGE3
  70
0
  62
32
  6
CONTINUOUS
  0
LAYER
  2
BLUE4
  70
0
  62
5
  6
CONTINUOUS
  0
LAYER
  2
GREEN4
  70
0
  62
3
  6
CONTINUOUS
  0
LAYER
  2
CYAN4
  70
0
  62
4
  6
CONTINUOUS
  0
LAYER
  2
RED4
  70
0
  62
1
  6
CONTINUOUS
  0
LAYER
  2
MAGENTA4
  70
0
  62
6
  6
CONTINUOUS
  0
LAYER
  2
YELLOW4
  70
0
  62
2
  6
CONTINUOUS
  0
LAYER
  2
ORANGE4
  70
0
  62
40
  6
CONTINUOUS
  0
ENDTAB
  0
ENDSEC
  0
SECTION
  2
ENTITIES
0
ARC
8
WHITE
10
25.5499999999999972
20
-70.7939999999999969
40
0.5
50
-90.00000000
51
-0.00000000
0
ARC
8
WHITE
10
107.7999999999999972
20
-114.9439999999999884
40
0.5
50
90.00000000
51
180.00000000
0
ARC
8
WHITE
10
50.6499999999999986
20
-95.8939999999999912
40
0.5
50
90.00000000
51
180.00000000
0
LINE
8
WHITE
6
CONTINUOUS
10
107.2999999999999972
20
-70.7939999999999969
11
107.2999999999999972
21
-57.7939999999999969
0
ARC
8
WHITE
10
25.5499999999999972
20
-108.8939999999999912
40
0.5
50
-90.00000000
51
-0.00000000
0
CIRCLE
8
WHITE
10
104.7749999999999915
20
-73.8190000000000026
40
1.0999999999999999
0
LINE
8
WHITE
6
CONTINUOUS
10
64.1499999999999915
20
-95.8939999999999912
11
64.1499999999999915
21
-108.8939999999999912
0
CIRCLE
8
WHITE
10
28.5749999999999993
20
-73.8190000000000026
40
1.0999999999999999
0
LINE
8
WHITE
6
CONTINUOUS
10
31.5999999999999979
20
-95.3939999999999912
11
44.6000000000000014
21
-95.3939999999999912
0
LINE
8
WHITE
6
CONTINUOUS
10
63.6499999999999986
20
-90.3439999999999941
11
50.6499999999999986
21
-90.3439999999999941
0
LINE
8
WHITE
6
CONTINUOUS
10
102.25
20
-95.8939999999999912
11
102.25
21
-108.8939999999999912
0
LINE
8
WHITE
6
CONTINUOUS
10
31.0999999999999979
20
-108.8939999999999912
11
31.0999999999999979
21
-95.8939999999999912
0
ARC
8
WHITE
10
82.7000000000000028
20
-127.9439999999999884
40
0.5
50
-90.00000000
51
-0.00000000
0
ARC
8
WHITE
10
44.6000000000000014
20
-95.8939999999999912
40
0.5
50
0.00000000
51
90.00000000
0
LINE
8
WHITE
6
CONTINUOUS
10
26.0499999999999972
20
-114.9439999999999884
11
26.0499999999999972
21
-127.9439999999999884
0
LINE
8
WHITE
6
CONTINUOUS
10
31.0999999999999979
20
-127.9439999999999884
11
31.0999999999999979
21
-114.9439999999999884
0
LINE
8
WHITE
6
CONTINUOUS
10
102.25
20
-76.8439999999999941
11
102.25
21
-89.8439999999999941
0
ARC
8
WHITE
10
12.5499999999999989
20
-70.7939999999999969
40
0.5
50
-180.00000000
51
-90.00000000
0
ARC
8
WHITE
10
31.5999999999999979
20
-76.8439999999999941
40
0.5
50
90.00000000
51
180.00000000
0
ARC
8
WHITE
10
44.6000000000000014
20
-70.7939999999999969
40
0.5
50
-90.00000000
51
-0.00000000
0
LINE
8
WHITE
6
CONTINUOUS
10
25.5499999999999972
20
-109.3939999999999912
11
12.5499999999999989
21
-109.3939999999999912
0
LINE
8
WHITE
6
CONTINUOUS
10
25.5499999999999972
20
-71.2939999999999969
11
12.5499999999999989
21
-71.2939999999999969
0
ARC
8
WHITE
10
25.5499999999999972
20
-89.8439999999999941
40
0.5
50
-90.00000000
51
-0.00000000
0
ARC
8
WHITE
10
88.75
20
-89.8439999999999941
40
0.5
50
-180.00000000
51
-90.00000000
0
LINE
8
WHITE
6
CONTINUOUS
10
107.7999999999999972
20
-114.4439999999999884
11
120.7999999999999972
21
-114.4439999999999884
0
LINE
8
WHITE
6
CONTINUOUS
10
88.25
20
-89.8439999999999941
11
88.25
21
-76.8439999999999941
0
LINE
8
WHITE
6
CONTINUOUS
10
45.1000000000000014
20
-57.7939999999999969
11
45.1000000000000014
21
-70.7939999999999969
0
LINE
8
WHITE
6
CONTINUOUS
10
107.7999999999999972
20
-76.3439999999999941
11
120.7999999999999972
21
-76.3439999999999941
0
LINE
8
WHITE
6
CONTINUOUS
10
50.1499999999999986
20
-127.9439999999999884
11
50.1499999999999986
21
-114.9439999999999884
0
LINE
8
WHITE
6
CONTINUOUS
10
10.9499999999999993
20
-55.1939999999999955
11
122.3999999999999915
21
-55.1939999999999955
0
LINE
8
WHITE
6
CONTINUOUS
10
123.3999999999999915
20
-56.1939999999999955
11
123.3999999999999915
21
-129.5439999999999827
0
ARC
8
WHITE
10
44.6000000000000014
20
-89.8439999999999941
40
0.5
50
-90.00000000
51
-0.00000000
0
ARC
8
WHITE
10
63.6499999999999986
20
-108.8939999999999912
40
0.5
50
-90.00000000
51
-0.00000000
0
LINE
8
WHITE
6
CONTINUOUS
10
50.6499999999999986
20
-76.3439999999999941
11
63.6499999999999986
21
-76.3439999999999941
0
LINE
8
WHITE
6
CONTINUOUS
10
12.0499999999999989
20
-70.7939999999999969
11
12.0499999999999989
21
-57.7939999999999969
0
ARC
8
WHITE
10
69.7000000000000028
20
-76.8439999999999941
40
0.5
50
90.00000000
51
180.00000000
0
LINE
8
WHITE
6
CONTINUOUS
10
64.1499999999999915
20
-76.8439999999999941
11
64.1499999999999915
21
-89.8439999999999941
0
LINE
8
WHITE
6
CONTINUOUS
10
26.0499999999999972
20
-95.8939999999999912
11
26.0499999999999972
21
-108.8939999999999912
0
LINE
8
WHITE
6
CONTINUOUS
10
101.75
20
-71.2939999999999969
11
88.75
21
-71.2939999999999969
0
ARC
8
WHITE
10
63.6499999999999986
20
-114.9439999999999884
40
0.5
50
0.00000000
51
90.00000000
0
LINE
8
WHITE
6
CONTINUOUS
10
44.6000000000000014
20
-109.3939999999999912
11
31.5999999999999979
21
-109.3939999999999912
0
ARC
8
WHITE
10
50.6499999999999986
20
-89.8439999999999941
40
0.5
50
-180.00000000
51
-90.00000000
0
LINE
8
WHITE
6
CONTINUOUS
10
50.1499999999999986
20
-70.7939999999999969
11
50.1499999999999986
21
-57.7939999999999969
0
LINE
8
WHITE
6
CONTINUOUS
10
31.5999999999999979
20
-57.2939999999999969
11
44.6000000000000014
21
-57.2939999999999969
0
ARC
8
WHITE
10
107.7999999999999972
20
-89.8439999999999941
40
0.5
50
-180.00000000
51
-90.00000000
0
LINE
8
WHITE
6
CONTINUOUS
10
83.2000000000000028
20
-114.9439999999999884
11
83.2000000000000028
21
-127.9439999999999884
0
LINE
8
WHITE
6
CONTINUOUS
10
120.7999999999999972
20
-128.4439999999999884
11
107.7999999999999972
21
-128.4439999999999884
0
ARC
8
WHITE
10
25.5499999999999972
20
-127.9439999999999884
40
0.5
50
-90.00000000
51
-0.00000000
0
LINE
8
WHITE
6
CONTINUOUS
10
88.75
20
-76.3439999999999941
11
101.75
21
-76.3439999999999941
0
ARC
8
WHITE
10
101.75
20
-70.7939999999999969
40
0.5
50
-90.00000000
51
-0.00000000
0
LINE
8
WHITE
6
CONTINUOUS
10
88.75
20
-95.3939999999999912
11
101.75
21
-95.3939999999999912
0
LINE
8
WHITE
6
CONTINUOUS
10
69.7000000000000028
20
-57.2939999999999969
11
82.7000000000000028
21
-57.2939999999999969
0
ARC
8
WHITE
10
31.5999999999999979
20
-108.8939999999999912
40
0.5
50
-180.00000000
51
-90.00000000
0
ARC
8
WHITE
10
82.7000000000000028
20
-76.8439999999999941
40
0.5
50
0.00000000
51
90.00000000
0
ARC
8
WHITE
10
63.6499999999999986
20
-57.7939999999999969
40
0.5
50
0.00000000
51
90.00000000
0
LINE
8
WHITE
6
CONTINUOUS
10
107.2999999999999972
20
-108.8939999999999912
11
107.2999999999999972
21
-95.8939999999999912
0
LINE
8
WHITE
6
CONTINUOUS
10
69.7000000000000028
20
-76.3439999999999941
11
82.7000000000000028
21
-76.3439999999999941
0
LINE
8
WHITE
6
CONTINUOUS
10
83.2000000000000028
20
-57.7939999999999969
11
83.2000000000000028
21
-70.7939999999999969
0
LINE
8
WHITE
6
CONTINUOUS
10
31.0999999999999979
20
-89.8439999999999941
11
31.0999999999999979
21
-76.8439999999999941
0
ARC
8
WHITE
10
82.7000000000000028
20
-108.8939999999999912
40
0.5
50
-90.00000000
51
-0.00000000
0
LINE
8
WHITE
6
CONTINUOUS
10
44.6000000000000014
20
-90.3439999999999941
11
31.5999999999999979
21
-90.3439999999999941
0
ARC
8
WHITE
10
12.5499999999999989
20
-114.9439999999999884
40
0.5
50
90.00000000
51
180.00000000
0
ARC
8
WHITE
10
69.7000000000000028
20
-89.8439999999999941
40
0.5
50
-180.00000000
51
-90.00000000
0
LINE
8
WHITE
6
CONTINUOUS
10
45.1000000000000014
20
-76.8439999999999941
11
45.1000000000000014
21
-89.8439999999999941
0
LINE
8
WHITE
6
CONTINUOUS
10
25.5499999999999972
20
-90.3439999999999941
11
12.5499999999999989
21
-90.3439999999999941
0
LINE
8
WHITE
6
CONTINUOUS
10
12.0499999999999989
20
-127.9439999999999884
11
12.0499999999999989
21
-114.9439999999999884
0
LINE
8
WHITE
6
CONTINUOUS
10
88.75
20
-57.2939999999999969
11
101.75
21
-57.2939999999999969
0
ARC
8
WHITE
10
88.75
20
-57.7939999999999969
40
0.5
50
90.00000000
51
180.00000000
0
ARC
8
WHITE
10
31.5999999999999979
20
-127.9439999999999884
40
0.5
50
-180.00000000
51
-90.00000000
0
LINE
8
WHITE
6
CONTINUOUS
10
101.75
20
-109.3939999999999912
11
88.75
21
-109.3939999999999912
0
LINE
8
WHITE
6
CONTINUOUS
10
50.6499999999999986
20
-57.2939999999999969
11
63.6499999999999986
21
-57.2939999999999969
0
ARC
8
WHITE
10
31.5999999999999979
20
-114.9439999999999884
40
0.5
50
90.00000000
51
180.00000000
0
LINE
8
WHITE
6
CONTINUOUS
10
88.25
20
-70.7939999999999969
11
88.25
21
-57.7939999999999969
0
ARC
8
WHITE
10
107.7999999999999972
20
-76.8439999999999941
40
0.5
50
90.00000000
51
180.00000000
0
LINE
8
WHITE
6
CONTINUOUS
10
83.2000000000000028
20
-95.8939999999999912
11
83.2000000000000028
21
-108.8939999999999912
0
LINE
8
WHITE
6
CONTINUOUS
10
9.9499999999999993
20
-129.5439999999999827
11
9.9499999999999993
21
-56.1939999999999955
0
LINE
8
WHITE
6
CONTINUOUS
10
88.25
20
-127.9439999999999884
11
88.25
21
-114.9439999999999884
0
LINE
8
WHITE
6
CONTINUOUS
10
88.25
20
-108.8939999999999912
11
88.25
21
-95.8939999999999912
0
LINE
8
WHITE
6
CONTINUOUS
10
101.75
20
-128.4439999999999884
11
88.75
21
-128.4439999999999884
0
ARC
8
WHITE
10
120.7999999999999972
20
-76.8439999999999941
40
0.5
50
0.00000000
51
90.00000000
0
ARC
8
WHITE
10
69.7000000000000028
20
-127.9439999999999884
40
0.5
50
-180.00000000
51
-90.00000000
0
ARC
8
WHITE
10
10.9499999999999993
20
-129.5439999999999827
40
1.
50
-180.00000000
51
-90.00000000
0
LINE
8
WHITE
6
CONTINUOUS
10
69.7000000000000028
20
-114.4439999999999884
11
82.7000000000000028
21
-114.4439999999999884
0
ARC
8
WHITE
10
101.75
20
-108.8939999999999912
40
0.5
50
-90.00000000
51
-0.00000000
0
LINE
8
WHITE
6
CONTINUOUS
10
44.6000000000000014
20
-128.4439999999999884
11
31.5999999999999979
21
-128.4439999999999884
0
LINE
8
WHITE
6
CONTINUOUS
10
69.7000000000000028
20
-95.3939999999999912
11
82.7000000000000028
21
-95.3939999999999912
0
ARC
8
WHITE
10
88.75
20
-76.8439999999999941
40
0.5
50
90.00000000
51
180.00000000
0
LINE
8
WHITE
6
CONTINUOUS
10
26.0499999999999972
20
-76.8439999999999941
11
26.0499999999999972
21
-89.8439999999999941
0
LINE
8
WHITE
6
CONTINUOUS
10
107.2999999999999972
20
-89.8439999999999941
11
107.2999999999999972
21
-76.8439999999999941
0
LINE
8
WHITE
6
CONTINUOUS
10
69.2000000000000028
20
-70.7939999999999969
11
69.2000000000000028
21
-57.7939999999999969
0
ARC
8
WHITE
10
82.7000000000000028
20
-57.7939999999999969
40
0.5
50
0.00000000
51
90.00000000
0
LINE
8
WHITE
6
CONTINUOUS
10
64.1499999999999915
20
-114.9439999999999884
11
64.1499999999999915
21
-127.9439999999999884
0
CIRCLE
8
WHITE
10
28.5749999999999993
20
-111.9189999999999969
40
1.0999999999999999
0
ARC
8
WHITE
10
44.6000000000000014
20
-57.7939999999999969
40
0.5
50
0.00000000
51
90.00000000
0
LINE
8
WHITE
6
CONTINUOUS
10
31.5999999999999979
20
-76.3439999999999941
11
44.6000000000000014
21
-76.3439999999999941
0
LINE
8
WHITE
6
CONTINUOUS
10
45.1000000000000014
20
-114.9439999999999884
11
45.1000000000000014
21
-127.9439999999999884
0
LINE
8
WHITE
6
CONTINUOUS
10
69.2000000000000028
20
-89.8439999999999941
11
69.2000000000000028
21
-76.8439999999999941
0
ARC
8
WHITE
10
50.6499999999999986
20
-57.7939999999999969
40
0.5
50
90.00000000
51
180.00000000
0
ARC
8
WHITE
10
50.6499999999999986
20
-70.7939999999999969
40
0.5
50
-180.00000000
51
-90.00000000
0
ARC
8
WHITE
10
69.7000000000000028
20
-95.8939999999999912
40
0.5
50
90.00000000
51
180.00000000
0
LINE
8
WHITE
6
CONTINUOUS
10
82.7000000000000028
20
-71.2939999999999969
11
69.7000000000000028
21
-71.2939999999999969
0
ARC
8
WHITE
10
101.75
20
-76.8439999999999941
40
0.5
50
0.00000000
51
90.00000000
0
ARC
8
WHITE
10
12.5499999999999989
20
-127.9439999999999884
40
0.5
50
-180.00000000
51
-90.00000000
0
ARC
8
WHITE
10
120.7999999999999972
20
-95.8939999999999912
40
0.5
50
0.00000000
51
90.00000000
0
ARC
8
WHITE
10
63.6499999999999986
20
-89.8439999999999941
40
0.5
50
-90.00000000
51
-0.00000000
0
ARC
8
WHITE
10
25.5499999999999972
20
-95.8939999999999912
40
0.5
50
0.00000000
51
90.00000000
0
LINE
8
WHITE
6
CONTINUOUS
10
88.75
20
-114.4439999999999884
11
101.75
21
-114.4439999999999884
0
LINE
8
WHITE
6
CONTINUOUS
10
44.6000000000000014
20
-71.2939999999999969
11
31.5999999999999979
21
-71.2939999999999969
0
ARC
8
WHITE
10
25.5499999999999972
20
-114.9439999999999884
40
0.5
50
0.00000000
51
90.00000000
0
ARC
8
WHITE
10
63.6499999999999986
20
-127.9439999999999884
40
0.5
50
-90.00000000
51
-0.00000000
0
ARC
8
WHITE
10
50.6499999999999986
20
-108.8939999999999912
40
0.5
50
-180.00000000
51
-90.00000000
0
ARC
8
WHITE
10
120.7999999999999972
20
-114.9439999999999884
40
0.5
50
0.00000000
51
90.00000000
0
LINE
8
WHITE
6
CONTINUOUS
10
50.1499999999999986
20
-89.8439999999999941
11
50.1499999999999986
21
-76.8439999999999941
0
ARC
8
WHITE
10
120.7999999999999972
20
-70.7939999999999969
40
0.5
50
-90.00000000
51
-0.00000000
0
ARC
8
WHITE
10
88.75
20
-127.9439999999999884
40
0.5
50
-180.00000000
51
-90.00000000
0
LINE
8
WHITE
6
CONTINUOUS
10
101.75
20
-90.3439999999999941
11
88.75
21
-90.3439999999999941
0
ARC
8
WHITE
10
44.6000000000000014
20
-127.9439999999999884
40
0.5
50
-90.00000000
51
-0.00000000
0
ARC
8
WHITE
10
63.6499999999999986
20
-95.8939999999999912
40
0.5
50
0.00000000
51
90.00000000
0
ARC
8
WHITE
10
69.7000000000000028
20
-114.9439999999999884
40
0.5
50
90.00000000
51
180.00000000
0
ARC
8
WHITE
10
69.7000000000000028
20
-57.7939999999999969
40
0.5
50
90.00000000
51
180.00000000
0
LINE
8
WHITE
6
CONTINUOUS
10
122.3999999999999915
20
-130.5439999999999827
11
10.9499999999999993
21
-130.5439999999999827
0
ARC
8
WHITE
10
82.7000000000000028
20
-114.9439999999999884
40
0.5
50
0.00000000
51
90.00000000
0
ARC
8
WHITE
10
31.5999999999999979
20
-57.7939999999999969
40
0.5
50
90.00000000
51
180.00000000
0
ARC
8
WHITE
10
120.7999999999999972
20
-89.8439999999999941
40
0.5
50
-90.00000000
51
-0.00000000
0
LINE
8
WHITE
6
CONTINUOUS
10
69.2000000000000028
20
-108.8939999999999912
11
69.2000000000000028
21
-95.8939999999999912
0
CIRCLE
8
WHITE
10
104.7749999999999915
20
-111.9189999999999969
40
1.0999999999999999
0
ARC
8
WHITE
10
101.75
20
-95.8939999999999912
40
0.5
50
0.00000000
51
90.00000000
0
ARC
8
WHITE
10
101.75
20
-89.8439999999999941
40
0.5
50
-90.00000000
51
-0.00000000
0
LINE
8
WHITE
6
CONTINUOUS
10
31.5999999999999979
20
-114.4439999999999884
11
44.6000000000000014
21
-114.4439999999999884
0
LINE
8
WHITE
6
CONTINUOUS
10
12.5499999999999989
20
-57.2939999999999969
11
25.5499999999999972
21
-57.2939999999999969
0
LINE
8
WHITE
6
CONTINUOUS
10
12.5499999999999989
20
-95.3939999999999912
11
25.5499999999999972
21
-95.3939999999999912
0
ARC
8
WHITE
10
101.75
20
-57.7939999999999969
40
0.5
50
0.00000000
51
90.00000000
0
ARC
8
WHITE
10
120.7999999999999972
20
-127.9439999999999884
40
0.5
50
-90.00000000
51
-0.00000000
0
LINE
8
WHITE
6
CONTINUOUS
10
107.2999999999999972
20
-127.9439999999999884
11
107.2999999999999972
21
-114.9439999999999884
0
ARC
8
WHITE
10
101.75
20
-114.9439999999999884
40
0.5
50
0.00000000
51
90.00000000
0
LINE
8
WHITE
6
CONTINUOUS
10
83.2000000000000028
20
-76.8439999999999941
11
83.2000000000000028
21
-89.8439999999999941
0
LINE
8
WHITE
6
CONTINUOUS
10
64.1499999999999915
20
-57.7939999999999969
11
64.1499999999999915
21
-70.7939999999999969
0
ARC
8
WHITE
10
50.6499999999999986
20
-76.8439999999999941
40
0.5
50
90.00000000
51
180.00000000
0
ARC
8
WHITE
10
101.75
20
-127.9439999999999884
40
0.5
50
-90.00000000
51
-0.00000000
0
LINE
8
WHITE
6
CONTINUOUS
10
63.6499999999999986
20
-109.3939999999999912
11
50.6499999999999986
21
-109.3939999999999912
0
ARC
8
WHITE
10
12.5499999999999989
20
-57.7939999999999969
40
0.5
50
90.00000000
51
180.00000000
0
ARC
8
WHITE
10
12.5499999999999989
20
-89.8439999999999941
40
0.5
50
-180.00000000
51
-90.00000000
0
ARC
8
WHITE
10
82.7000000000000028
20
-89.8439999999999941
40
0.5
50
-90.00000000
51
-0.00000000
0
ARC
8
WHITE
10
107.7999999999999972
20
-57.7939999999999969
40
0.5
50
90.00000000
51
180.00000000
0
LINE
8
WHITE
6
CONTINUOUS
10
102.25
20
-114.9439999999999884
11
102.25
21
-127.9439999999999884
0
ARC
8
WHITE
10
120.7999999999999972
20
-57.7939999999999969
40
0.5
50
0.00000000
51
90.00000000
0
LINE
8
WHITE
6
CONTINUOUS
10
120.7999999999999972
20
-71.2939999999999969
11
107.7999999999999972
21
-71.2939999999999969
0
LINE
8
WHITE
6
CONTINUOUS
10
63.6499999999999986
20
-128.4439999999999884
11
50.6499999999999986
21
-128.4439999999999884
0
ARC
8
WHITE
10
25.5499999999999972
20
-76.8439999999999941
40
0.5
50
0.00000000
51
90.00000000
0
ARC
8
WHITE
10
69.7000000000000028
20
-70.7939999999999969
40
0.5
50
-180.00000000
51
-90.00000000
0
ARC
8
WHITE
10
50.6499999999999986
20
-114.9439999999999884
40
0.5
50
90.00000000
51
180.00000000
0
ARC
8
WHITE
10
107.7999999999999972
20
-95.8939999999999912
40
0.5
50
90.00000000
51
180.00000000
0
LINE
8
WHITE
6
CONTINUOUS
10
82.7000000000000028
20
-90.3439999999999941
11
69.7000000000000028
21
-90.3439999999999941
0
ARC
8
WHITE
10
31.5999999999999979
20
-70.7939999999999969
40
0.5
50
-180.00000000
51
-90.00000000
0
LINE
8
WHITE
6
CONTINUOUS
10
107.7999999999999972
20
-95.3939999999999912
11
120.7999999999999972
21
-95.3939999999999912
0
ARC
8
WHITE
10
12.5499999999999989
20
-95.8939999999999912
40
0.5
50
90.00000000
51
180.00000000
0
ARC
8
WHITE
10
50.6499999999999986
20
-127.9439999999999884
40
0.5
50
-180.00000000
51
-90.00000000
0
LINE
8
WHITE
6
CONTINUOUS
10
82.7000000000000028
20
-109.3939999999999912
11
69.7000000000000028
21
-109.3939999999999912
0
LINE
8
WHITE
6
CONTINUOUS
10
26.0499999999999972
20
-57.7939999999999969
11
26.0499999999999972
21
-70.7939999999999969
0
ARC
8
WHITE
10
12.5499999999999989
20
-108.8939999999999912
40
0.5
50
-180.00000000
51
-90.00000000
0
ARC
8
WHITE
10
31.5999999999999979
20
-95.8939999999999912
40
0.5
50
90.00000000
51
180.00000000
0
LINE
8
WHITE
6
CONTINUOUS
10
45.1000000000000014
20
-95.8939999999999912
11
45.1000000000000014
21
-108.8939999999999912
0
LINE
8
WHITE
6
CONTINUOUS
10
63.6499999999999986
20
-71.2939999999999969
11
50.6499999999999986
21
-71.2939999999999969
0
ARC
8
WHITE
10
107.7999999999999972
20
-70.7939999999999969
40
0.5
50
-180.00000000
51
-90.00000000
0
ARC
8
WHITE
10
31.5999999999999979
20
-89.8439999999999941
40
0.5
50
-180.00000000
51
-90.00000000
0
LINE
8
WHITE
6
CONTINUOUS
10
69.2000000000000028
20
-127.9439999999999884
11
69.2000000000000028
21
-114.9439999999999884
0
ARC
8
WHITE
10
88.75
20
-114.9439999999999884
40
0.5
50
90.00000000
51
180.00000000
0
LINE
8
WHITE
6
CONTINUOUS
10
50.6499999999999986
20
-95.3939999999999912
11
63.6499999999999986
21
-95.3939999999999912
0
LINE
8
WHITE
6
CONTINUOUS
10
82.7000000000000028
20
-128.4439999999999884
11
69.7000000000000028
21
-128.4439999999999884
0
ARC
8
WHITE
10
10.9499999999999993
20
-56.1939999999999955
40
1.
50
90.00000000
51
180.00000000
0
ARC
8
WHITE
10
88.75
20
-70.7939999999999969
40
0.5
50
-180.00000000
51
-90.00000000
0
ARC
8
WHITE
10
88.75
20
-95.8939999999999912
40
0.5
50
90.00000000
51
180.00000000
0
ARC
8
WHITE
10
44.6000000000000014
20
-108.8939999999999912
40
0.5
50
-90.00000000
51
-0.00000000
0
ARC
8
WHITE
10
69.7000000000000028
20
-108.8939999999999912
40
0.5
50
-180.00000000
51
-90.00000000
0
ARC
8
WHITE
10
82.7000000000000028
20
-70.7939999999999969
40
0.5
50
-90.00000000
51
-0.00000000
0
ARC
8
WHITE
10
122.3999999999999915
20
-56.1939999999999955
40
1.
50
0.00000000
51
90.00000000
0
LINE
8
WHITE
6
CONTINUOUS
10
50.6499999999999986
20
-114.4439999999999884
11
63.6499999999999986
21
-114.4439999999999884
0
LINE
8
WHITE
6
CONTINUOUS
10
121.2999999999999972
20
-76.8439999999999941
11
121.2999999999999972
21
-89.8439999999999941
0
ARC
8
WHITE
10
120.7999999999999972
20
-108.8939999999999912
40
0.5
50
-90.00000000
51
-0.00000000
0
ARC
8
WHITE
10
44.6000000000000014
20
-114.9439999999999884
40
0.5
50
0.00000000
51
90.00000000
0
ARC
8
WHITE
10
63.6499999999999986
20
-76.8439999999999941
40
0.5
50
0.00000000
51
90.00000000
0
LINE
8
WHITE
6
CONTINUOUS
10
25.5499999999999972
20
-128.4439999999999884
11
12.5499999999999989
21
-128.4439999999999884
0
ARC
8
WHITE
10
82.7000000000000028
20
-95.8939999999999912
40
0.5
50
0.00000000
51
90.00000000
0
LINE
8
WHITE
6
CONTINUOUS
10
31.0999999999999979
20
-70.7939999999999969
11
31.0999999999999979
21
-57.7939999999999969
0
LINE
8
WHITE
6
CONTINUOUS
10
12.5499999999999989
20
-76.3439999999999941
11
25.5499999999999972
21
-76.3439999999999941
0
ARC
8
WHITE
10
12.5499999999999989
20
-76.8439999999999941
40
0.5
50
90.00000000
51
180.00000000
0
LINE
8
WHITE
6
CONTINUOUS
10
121.2999999999999972
20
-114.9439999999999884
11
121.2999999999999972
21
-127.9439999999999884
0
LINE
8
WHITE
6
CONTINUOUS
10
121.2999999999999972
20
-95.8939999999999912
11
121.2999999999999972
21
-108.8939999999999912
0
LINE
8
WHITE
6
CONTINUOUS
10
12.5499999999999989
20
-114.4439999999999884
11
25.5499999999999972
21
-114.4439999999999884
0
LINE
8
WHITE
6
CONTINUOUS
10
121.2999999999999972
20
-57.7939999999999969
11
121.2999999999999972
21
-70.7939999999999969
0
LINE
8
WHITE
6
CONTINUOUS
10
12.0499999999999989
20
-89.8439999999999941
11
12.0499999999999989
21
-76.8439999999999941
0
ARC
8
WHITE
10
63.6499999999999986
20
-70.7939999999999969
40
0.5
50
-90.00000000
51
-0.00000000
0
LINE
8
WHITE
6
CONTINUOUS
10
120.7999999999999972
20
-109.3939999999999912
11
107.7999999999999972
21
-109.3939999999999912
0
ARC
8
WHITE
10
25.5499999999999972
20
-57.7939999999999969
40
0.5
50
0.00000000
51
90.00000000
0
ARC
8
WHITE
10
107.7999999999999972
20
-108.8939999999999912
40
0.5
50
-180.00000000
51
-90.00000000
0
LINE
8
WHITE
6
CONTINUOUS
10
107.7999999999999972
20
-57.2939999999999969
11
120.7999999999999972
21
-57.2939999999999969
0
LINE
8
WHITE
6
CONTINUOUS
10
102.25
20
-57.7939999999999969
11
102.25
21
-70.7939999999999969
0
LINE
8
WHITE
6
CONTINUOUS
10
12.0499999999999989
20
-108.8939999999999912
11
12.0499999999999989
21
-95.8939999999999912
0
LINE
8
WHITE
6
CONTINUOUS
10
50.1499999999999986
20
-108.8939999999999912
11
50.1499999999999986
21
-95.8939999999999912
0
ARC
8
WHITE
10
44.6000000000000014
20
-76.8439999999999941
40
0.5
50
0.00000000
51
90.00000000
0
ARC
8
WHITE
10
122.3999999999999915
20
-129.5439999999999827
40
1.
50
-90.00000000
51
-0.00000000
0
LINE
8
WHITE
6
CONTINUOUS
10
120.7999999999999972
20
-90.3439999999999941
11
107.7999999999999972
21
-90.3439999999999941
0
ARC
8
WHITE
10
107.7999999999999972
20
-127.9439999999999884
40
0.5
50
-180.00000000
51
-90.00000000
0
ARC
8
WHITE
10
88.75
20
-108.8939999999999912
40
0.5
50
-180.00000000
51
-90.00000000
  0
ENDSEC
  0
EOF
